<?xml version="1.0" encoding="utf-8"?>
<!-- Generator: Adobe Illustrator 16.0.0, SVG Export Plug-In . SVG Version: 6.00 Build 0)  -->
<!DOCTYPE svg PUBLIC "-//W3C//DTD SVG 1.1//EN" "http://www.w3.org/Graphics/SVG/1.1/DTD/svg11.dtd">
<svg version="1.1" id="Layer_2" xmlns="http://www.w3.org/2000/svg" xmlns:xlink="http://www.w3.org/1999/xlink" x="0px" y="0px"
	 width="855.807px" height="131.764px" viewBox="0 0 855.807 131.764" enable-background="new 0 0 855.807 131.764"
	 xml:space="preserve">
<g id="XMLID_342_">
	<rect id="XMLID_183_" x="685.685" y="19.536" width="18.704" height="112.228"/>
	<rect id="XMLID_162_" x="710" y="45.307" width="18.705" height="86.457"/>
	<rect id="XMLID_161_" x="734.316" y="75.649" width="18.704" height="56.114"/>
	<rect id="XMLID_146_" x="831.58" y="8.313" width="18.705" height="123.451"/>
	<rect id="XMLID_145_" x="807.265" y="54.867" width="18.704" height="76.897"/>
	<rect id="XMLID_144_" x="782.948" y="93.315" width="18.705" height="38.448"/>
	<rect id="XMLID_143_" x="758.632" y="108.487" width="18.705" height="23.276"/>
	<rect id="XMLID_141_" x="319.318" y="45.307" width="18.705" height="86.457"/>
	<rect id="XMLID_139_" x="343.634" y="75.649" width="18.705" height="56.114"/>
	<rect id="XMLID_135_" x="367.95" y="54.867" width="18.705" height="76.897"/>
	<rect id="XMLID_134_" x="392.266" y="26.602" width="18.705" height="105.162"/>
	<rect id="XMLID_133_" x="416.582" width="18.704" height="131.764"/>
	<rect id="XMLID_132_" x="440.897" y="91.029" width="18.705" height="40.734"/>
	<rect id="XMLID_131_" x="465.214" y="40.319" width="18.705" height="91.445"/>
	<rect id="XMLID_130_" x="489.53" y="26.602" width="18.704" height="105.162"/>
	<rect id="XMLID_129_" x="513.846" y="88.535" width="18.705" height="43.229"/>
	<rect id="XMLID_128_" x="538.162" y="103.707" width="18.704" height="28.057"/>
	<rect id="XMLID_125_" x="562.478" y="56.529" width="18.705" height="75.234"/>
	<rect id="XMLID_124_" x="586.794" y="26.602" width="18.705" height="105.162"/>
	<rect id="XMLID_123_" x="611.11" y="86.041" width="18.704" height="45.723"/>
	<rect id="XMLID_122_" x="635.426" y="105.577" width="18.705" height="26.187"/>
	<rect id="XMLID_121_" x="659.742" y="4.988" width="18.705" height="126.776"/>
	<rect id="XMLID_316_" x="147.522" y="19.536" width="18.705" height="112.228"/>
	<rect id="XMLID_315_" x="171.838" y="45.307" width="18.705" height="86.457"/>
	<rect id="XMLID_314_" x="196.154" y="75.649" width="18.705" height="56.114"/>
	<rect id="XMLID_313_" x="293.418" y="8.313" width="18.705" height="123.451"/>
	<rect id="XMLID_312_" x="269.103" y="54.867" width="18.705" height="76.897"/>
	<rect id="XMLID_311_" x="244.787" y="93.315" width="18.705" height="38.448"/>
	<rect id="XMLID_310_" x="220.471" y="108.487" width="18.705" height="23.276"/>
	<rect id="XMLID_309_" y="103.707" width="18.705" height="28.057"/>
	<rect id="XMLID_308_" x="24.316" y="56.529" width="18.705" height="75.234"/>
	<rect id="XMLID_307_" x="48.632" y="26.602" width="18.705" height="105.162"/>
	<rect id="XMLID_306_" x="72.948" y="86.041" width="18.705" height="45.723"/>
	<rect id="XMLID_305_" x="97.264" y="105.577" width="18.705" height="26.187"/>
	<rect id="XMLID_304_" x="121.58" y="4.988" width="18.705" height="126.776"/>
</g>
</svg>
