<?xml version="1.0" encoding="utf-8"?>
<!-- Generator: Adobe Illustrator 23.0.1, SVG Export Plug-In . SVG Version: 6.00 Build 0)  -->
<svg version="1.1" id="Слой_1" xmlns="http://www.w3.org/2000/svg" xmlns:xlink="http://www.w3.org/1999/xlink" x="0px" y="0px"
	 viewBox="0 0 502.1 366.3" style="enable-background:new 0 0 502.1 366.3;" xml:space="preserve">
<path d="M468.5,123.7c0,0,9.7-54.8,33.6-75.6c0,0-33.7,12.8-59,35.9c0,0-15.7,15.6-18.4,15.8c0,0,15.8,2.1,26.2-5.7
	c0,0-10.1,14.8-11.8,18.5c0,0-20.8-13-38.7,0.5c0,0-20,15.2-9.7,37.3c0,0,9.1,18,28.3,14.3c0,0,16.4-0.8,20.6-17.1
	c0,0,4.3,25.1-26.9,29.6c0,0-16.7,0.6-37.3-11c0,0-26.7-15.5-67.3-10.6c0,0-6.2,0.9-7.3,2.7c0,0,9.4-19.3,41-16c0,0,10.6,5.7,13,5.5
	c0,0,2,5.1-2,6.4c0,0,6.6,2,7.9-6.2c0,0,3.6-5.3-4.5-9.4l-1.4-1c-4-22.4,4.6-29.2,4.6-29.2c7.8-9.2,21.6-10,21.6-10
	s9.8,3.3,11.8,2.8c0,0,2.5,4.1-0.8,5.8c0,0,5.9,0.8,5.8-6.5c0,0,2.5-5.1-6-7.6l-2-2.9c-7.6-13.4-3.5-32-3.5-32
	c8.3-35.4,27-38.1,27-38.1s5.1,0.7,7.8-3.4c0,0,2.5,4.1-0.8,5.8c0,0,5.9,0.8,5.8-6.5c0,0,1.2-4.8-4.2-5c0,0-1.2-3.8-8.2-4
	c0,0-2.7-6.5-12.8-0.4c0,0-24.3,22.1-48.6,25.2c0,0-22.7,3.2-64.4,2.8c0,0-40.9-1.9-66.3,23.7c0,0-14.4,16.3-14.2,39.6
	c0,0-1.5,49-20.5,55.5l-6.1-6.3c2.8-8.2,11.6,0.3,11.6,0.3c6.8-15.4-8.1-21.6-8.1-21.6c-4.5-3.4-1.9-8.7-1.9-8.7
	c12.5-4.7,10.9,12.7,10.9,12.7c19-15.3,0.3-29.8,0.3-29.8c-6.8-5.6-3.5-10.6-3.5-10.6c9.4-7.5,9.9,10.7,9.9,10.7
	c17-22.3-9.1-37.3-9.1-37.3c-2.9-1.9,0.9-4.3,0.9-4.3c9.7-1.9,10.8,6.5,10.8,6.5c3.3-20-12.7-26.4-12.7-26.4s16.8-16.4,13.7-29.2
	c0,0-5.9,9.5-20.1,8c0,0,8.5-8.3,6.1-15.1c0,0-5.3,7.6-16.4,9.4c0,0-16.1,0.6-18.7,4.8c-1.7,2.8-26.8-2.4-26.8-2.4
	c-15.3,0.9-12.2,12.5-12.2,12.5c-4.7-3.1-24.2-6.1-24.2-6.1c-23.9-0.5-30.4,9.3-30.4,9.3c10.9-5.3,19.2,3.8,19.2,3.8
	c-3.3,3.7-4.3,19.5-4.3,19.5c-14.4,6-24.5-5.8-24.5-5.8l13.2-1.2c-13.6-2.5-37.2-30.3-37.2-30.3c7.4,41,21.6,50.6,21.6,50.6
	C46.8,63.3,47.7,51,47.7,51c1,1.1,10,6.7,10,6.7C66.2,63,84.8,59,84.8,59c1.7,17-17,22.3-17,22.3C84.6,83.7,95,78.7,95,78.7
	c-1.2,5-8.5,7.5-8.5,7.5c10.9,1.6,19.8-7.2,19.8-7.2c-0.4,6.1-7,10-7,10c11-1.8,19.4-11,19.4-11c5.1,0.1,10.7,9.4,10.7,9.4
	c-5.8,4.9-2.2,11.2-2.2,11.2c-10.4,5.9-8.4,10.7-8.4,10.7c-10.6,5.8-8.1,12.1-8.1,12.1c-13.4,7.9-9,15.3-9,15.3
	c-12,7.2-8.8,18.3-8.8,18.3c-10.2,8.3-4.9,19.4-4.9,19.4c-7,11.6,0.3,18,0.3,18c-2.2,0.7-3.4,5.8-3.4,5.8s-12-20.2-15.6-37.2
	c0,0-2.9-18.6-6.9-20.9c0,0-11.2-12.9-8.2-28.4c0,0,2.6-10.4-4.1-11.6c0,0-5.8-13.6-18.9-4.3c0,0,8.8,0.5,7.9,4.5
	c0,0-5.6,7.1,0.4,14l1.5,3.3l-5.2-5c0,0-0.8-9.4-10.5-9.1c0,0-18.3-6.7-17,10.5c0,0,3.4-5.8,10.3-1.8c0,0-1.6,8.6,8.6,9.6
	c0,0,7.1,4.2,7.5,10.4c0,0-4.5-2-9.6-1.6c0,0-9-6.2-14.7-0.4c0,0-14.3,2.3-5.8,15.1c0,0,0-7,4.5-5.8c0,0,6.2,8.8,15.2,2.3
	c0,0,9.3,0.3,10.1,3.4c0,0,1.8,12.8,7.1,15.3c0,0-0.8,8.8-3.8,11.2c0,0-11.5,9-5.6,16.2c0,0-4.3,8.7-7.8,0.3c0,0,3.3,17.3,15.9,6.9
	c0,0,9.9,0,8.8-16.1l1.7-1.9c0,0,1.8,40.4,19.1,80.9c0,0,5,20.8-18.1,11.8c0,0,21.1,22.9,37.7-2.9c0,0,18.6-4,24.2-11.4
	c0,0,10.7,9.7,14,6c0,0,2,6.5,3.6,4.6l-1.1,8.2c0,0-8.6,47.5-29.8,56.8c0,0-1.7,3.8-14.2-9.9c0,0-4.2-13.5-13.6-11.8
	c0,0-16.8-3.6-16.5,11.4c0,0,5.6-6.5,9.2-0.6c0,0-1.2,3.6,0.7,4.7c0,0-6.1-0.5-7.1,3.1c0,0-15.8-1-8.8,17.5c0,0,1.3-9.1,7.2-6.4
	c0,0,2,3.9,6.5,4.9c0,0-16.4,11.1-1.2,21.3c0,0-1-10.3,4.2-6.8c0,0,8.1,8,16.1-1.5c0,0,5-5.7,10.5-2.7c0,0,3,6.7,33.1-1.1
	c0,0,16.2-2.4,20.4,0c0,0,11.3,7.3,15.5,1.3c0,0,5.9-1,3.8,7.3c0,0,16.5-7.8,0.9-19.1c0,0-3-11.5-17.4-5.8c0,0-20.2,10.3-15.4-5.2
	c0,0,9.8-21.5,26.6-36.3c0,0,8-7,10-9.9c0,0,25-2.2,10.9,13.5c0,0,21.1-5.3,19.2-22.8c0,0-0.4-3.8-2.8-6c0,0,4.6-0.9,6.1-5.4
	c0,0,13,4.5,17.9-6.7c0,0,13.1,3,16.9-8.3l4.1,0.1c0,0,2.4,8.7,10,9.8c0,0,5.9,13.1,15.6,11.8c0,0,2,6.4,12.1,7.2
	c0,0-11.3,36.6-35.8,45c0,0-7.2,1.5-19.2-9.4c0,0-4.2-12.3-13.7-10.8c0,0-16.8-3.3-16.4,10.4c0,0,5.5-5.9,9.1-0.5
	c0,0-1.2,3.2,0.7,4.3c0,0-6.1-0.4-7.1,2.8c0,0-15.8-0.9-8.8,15.9c0,0,1.3-8.3,7.2-5.8c0,0,2,3.6,6.6,4.5c0,0-19.5,13.1-4.2,22.3
	c0,0-1.1-9.4,4.2-6.2c0,0,12.4,7.8,20.5-0.8c0,0,12-4.7,17.5-2c0,0,7.3,3.7,24.8-5.6c0,0,16.2-1.4,20.4,0.7c0,0,11.3,6.6,15.5,1.2
	c0,0,5.9-0.9,3.8,6.7c0,0,16.5-7.1,0.9-17.4c0,0-3-10.4-17.4-5.3c0,0-9.9,6.2-8.3-2.4c0,0,34.8-35,34-35.3c0,0,10.5-9.4,15.4,0.4
	c0,0,1.8,3.3-5.3,7.9c0,0,16.5-2,19.4-17c0,0,1.1-10.9-12.5-16.7c0,0-11.1-5.9-6.8-16c0,0,6.8,5.3,11.2,2.7c0,0,4.8,11.1,16.9,9.3
	c0,0,4.6,9.8,16.5,4.8c0,0,7.2,9.6,16.2,4.5c0,0,4.3,8.4,17.9,4c0,0,20.4,38.2,4.8,57.6c0,0-1.7,3.7-14.2-9.5c0,0-4.2-13-13.6-11.4
	c0,0-16.8-3.4-16.4,11c0,0,5.6-6.3,9.1-0.5c0,0-1.2,3.4,0.6,4.6c0,0-6.1-0.4-7.1,3c0,0-15.8-1-8.8,16.9c0,0,1.3-8.8,7.2-6.2
	c0,0,2,3.8,6.6,4.7c0,0-16.4,10.8-1.1,20.6c0,0-1-9.9,4.2-6.6c0,0,9.4,8.9,17.4-0.3c0,0,12-5,17.5-2.2c0,0,12.9,9.2,30.4-0.7
	c0,0,10.6-4.2,14.8-2c0,0,11.3,7,15.5,1.2c0,0,5.9-0.9,3.8,7.1c0,0,16.5-7.6,0.9-18.5c0,0-3-11.1-17.4-5.6c0,0-12.6,6.6-15.5-12.3
	c0,0-1.9-45.1-2.7-45.5c0,0,14.6-4.7,9.6,11.3c0,0,16-12.7,7-28.8c0,0-5.2-6.8-15.4-7.7c0,0-13.4-2-23.8-20l-6.3-13.9
	c0,0,27.1-7,40.8-26.8c0,0,15.4-21.6,11.9-49c0,0-1.8-11.6-12.2-24.2c0,0,3.4-14.7,6.2-19.2C458.1,102.7,464,121.4,468.5,123.7z
	 M424.5,143.6c-9.3,4.5-11.6-4.1-11.6-4.1c-0.8-14.5,16.6-7.1,16.6-7.1C429.3,140.3,424.5,143.6,424.5,143.6z M89.7,58.6
	c13.3-3.4,20.4,3.7,20.4,3.7C97.3,68,89.7,58.6,89.7,58.6z"/>
</svg>
